HIERARCHY
ROOT Hips
{
	OFFSET 0.000000 0.000000 0.000000 
	CHANNELS 6 Xposition Yposition Zposition Zrotation Yrotation Xrotation
	JOINT LeftUpLeg
	{
		OFFSET 1.363060 -1.794630 0.839290 
		CHANNELS 3 Zrotation Yrotation Xrotation
		JOINT LeftLeg
		{
			OFFSET 2.448110 -6.726130 0.000000 
			CHANNELS 3 Zrotation Yrotation Xrotation
			JOINT LeftFoot
			{
				OFFSET 2.562200 -7.039590 0.000000 
				CHANNELS 3 Zrotation Yrotation Xrotation
				JOINT LeftToeBase
				{
					OFFSET 0.157640 -0.433110 2.322550 
					CHANNELS 3 Zrotation Yrotation Xrotation
					End Site
					{
						OFFSET 0.000000 0.000000 0.000000 
					}
				}
			}
		}
	}
	JOINT RightUpLeg
	{
		OFFSET -1.305520 -1.794630 0.839290 
		CHANNELS 3 Zrotation Yrotation Xrotation
		JOINT RightLeg
		{
			OFFSET -2.542530 -6.985550 0.000000 
			CHANNELS 3 Zrotation Yrotation Xrotation
			JOINT RightFoot
			{
				OFFSET -2.568260 -7.056230 0.000000 
				CHANNELS 3 Zrotation Yrotation Xrotation
				JOINT RightToeBase
				{
					OFFSET -0.164730 -0.452590 2.363150 
					CHANNELS 3 Zrotation Yrotation Xrotation
					End Site
					{
						OFFSET 0.000000 0.000000 0.000000 
					}
				}
			}
		}
	}
	JOINT Spine
	{
		OFFSET 0.028270 2.035590 -0.193380 
		CHANNELS 3 Zrotation Yrotation Xrotation
		JOINT Spine1
		{
			OFFSET 0.056720 2.048850 -0.042750 
			CHANNELS 3 Zrotation Yrotation Xrotation
			JOINT Neck1
			{
				OFFSET -0.054170 1.746240 0.172020 
				CHANNELS 3 Zrotation Yrotation Xrotation
				JOINT Head
				{
					OFFSET 0.104070 1.761360 -0.123970 
					CHANNELS 3 Zrotation Yrotation Xrotation
					End Site
					{
						OFFSET 0.000000 0.000000 0.000000 
					}
				}
			}
			JOINT LeftArm
			{
				OFFSET 3.362410 1.200890 -0.311210 
				CHANNELS 3 Zrotation Yrotation Xrotation
				JOINT LeftForeArm
				{
					OFFSET 4.983000 -0.000000 -0.000000 
					CHANNELS 3 Zrotation Yrotation Xrotation
					JOINT LeftHand
					{
						OFFSET 3.483560 -0.000000 -0.000000 
						CHANNELS 3 Zrotation Yrotation Xrotation
						JOINT LeftHandIndex1
						{
							OFFSET 0.715260 -0.000000 -0.000000 
							CHANNELS 3 Zrotation Yrotation Xrotation
							End Site
							{
								OFFSET 0.000000 0.000000 0.000000 
							}
						}
					}
				}
			}
			JOINT RightArm
			{
				OFFSET -3.136600 1.374050 -0.404650 
				CHANNELS 3 Zrotation Yrotation Xrotation
				JOINT RightForeArm
				{
					OFFSET -5.241900 -0.000000 -0.000000 
					CHANNELS 3 Zrotation Yrotation Xrotation
					JOINT RightHand
					{
						OFFSET -3.444170 -0.000000 -0.000000 
						CHANNELS 3 Zrotation Yrotation Xrotation
						JOINT RightHandIndex1
						{
							OFFSET -0.622530 -0.000000 -0.000000 
							CHANNELS 3 Zrotation Yrotation Xrotation
							End Site
							{
								OFFSET 0.000000 0.000000 0.000000 
							}
						}
					}
				}
			}
		}
	}
}
MOTION
Frames: 6
Frame Time: 0.041667
16.905471 17.923965 -27.547740 -4.910248 -30.896637 7.789134 -11.792981 3.456544 -15.324530 1.734904 9.754344 28.752957 -0.245552 3.620866 -7.538973 0.343100 -3.763700 -10.412900 17.307857 1.420096 -16.117474 -1.557887 -9.881302 29.108512 0.308162 -4.463017 -11.452064 -0.036100 1.227100 -3.374000 1.544123 -0.233544 -4.045683 -8.242874 0.338604 5.499085 10.931796 -11.537946 8.780790 5.384100 -5.325300 5.406900 -83.398658 -5.163417 33.103887 10.598825 -25.383716 -2.904706 0.006308 -0.398984 -3.800854 -7.125000 0.000000 0.000000 99.934409 -0.651044 29.872712 -20.485555 34.000822 -5.858655 0.049593 -0.853268 -0.465663 7.125000 0.000000 0.000000 
16.893142 17.924781 -27.542645 -4.878614 -30.859327 7.726467 -11.833798 3.571208 -15.373408 1.765854 9.800654 28.899725 -0.263186 3.676905 -7.503985 0.349000 -3.795700 -10.502600 17.303433 1.364360 -16.026979 -1.550951 -9.871116 29.073290 0.283581 -4.369812 -11.463055 -0.029700 1.111600 -3.056000 1.504469 -0.173108 -3.999810 -8.425602 0.386174 5.680232 10.893384 -11.642084 8.714739 5.338600 -5.371300 5.379300 -83.428638 -5.327837 32.633396 10.134339 -24.739017 -2.726230 -0.000286 -0.406205 -3.294785 -7.125000 0.000000 0.000000 100.155260 -0.587322 29.631716 -20.217969 33.746150 -5.740060 0.044503 -0.856632 -0.304482 7.125000 0.000000 0.000000 
16.881525 17.925086 -27.543460 -4.831493 -30.716228 7.709228 -11.860551 3.608482 -15.473134 1.790397 9.838594 29.018136 -0.297995 3.790583 -7.457321 0.356600 -3.836700 -10.617700 17.312571 1.341886 -15.995820 -1.546600 -9.863589 29.052361 0.316345 -4.533323 -11.594522 -0.033300 1.178300 -3.239400 1.489159 -0.158945 -3.993532 -8.488030 0.397362 5.716502 10.859016 -11.761895 8.796656 5.277300 -5.416700 5.458800 -83.492741 -5.444318 32.320403 9.618320 -24.024350 -2.552502 -0.016491 -0.388657 -2.763716 -7.125000 0.000000 0.000000 100.313528 -0.575205 29.372250 -19.952068 33.480151 -5.623026 0.040712 -0.857619 -0.136066 7.125000 0.000000 0.000000 
16.870622 17.926615 -27.542747 -4.789571 -30.574943 7.672373 -11.878813 3.619992 -15.532026 1.811937 9.873962 29.126307 -0.310173 3.827409 -7.422858 0.350300 -3.802800 -10.522400 17.326512 1.250924 -15.968262 -1.543869 -9.855474 29.032961 0.308050 -4.510307 -11.629064 -0.029300 1.104400 -3.036200 1.514910 -0.191423 -4.012351 -8.369958 0.373173 5.638410 10.833581 -11.757185 8.745194 5.288800 -5.425100 5.413100 -83.768758 -5.380773 31.754934 9.139878 -23.347601 -2.369120 -0.019793 -0.402955 -2.106137 -7.125000 0.000000 0.000000 100.270504 -0.659663 29.245691 -19.691403 33.203139 -5.507272 0.038524 -0.851219 -0.034852 7.125000 0.000000 0.000000 
16.860635 17.924883 -27.539282 -4.761535 -30.522826 7.621862 -11.912374 3.651617 -15.545800 1.831690 9.903914 29.221289 -0.329294 3.900548 -7.470385 0.348700 -3.794300 -10.498600 17.332163 1.178314 -15.921102 -1.543499 -9.852776 29.028096 0.301649 -4.506494 -11.707124 -0.029000 1.098700 -3.020500 1.539327 -0.244483 -4.021988 -8.294072 0.345697 5.613236 10.844228 -11.698762 8.709145 5.330800 -5.406500 5.376400 -84.015231 -5.241989 31.060962 8.726926 -22.775198 -2.244796 -0.033287 -0.386395 -1.514563 -7.125000 0.000000 0.000000 100.177872 -0.767071 29.287611 -19.475453 32.978228 -5.413749 0.037986 -0.849968 0.060651 7.125000 0.000000 0.000000 
16.850242 17.924781 -27.537346 -4.732335 -30.430970 7.587949 -11.935358 3.682446 -15.576889 1.847580 9.927854 29.296730 -0.348590 3.966845 -7.466241 0.347000 -3.785100 -10.472900 17.343502 1.113902 -15.885403 -1.542151 -9.849458 29.019503 0.299394 -4.515252 -11.771024 -0.028000 1.080700 -2.971000 1.540100 -0.253836 -4.016561 -8.306106 0.344522 5.640504 10.839871 -11.721539 8.679852 5.330500 -5.418800 5.362600 -84.166296 -5.239201 30.462741 8.293409 -22.149885 -2.104523 -0.043144 -0.380831 -0.893524 -7.125000 0.000000 0.000000 100.224171 -0.797114 29.151669 -19.230256 32.725979 -5.308364 0.035549 -0.849052 0.194113 7.125000 0.000000 0.000000 
